# https://github.com/mikedh/trimesh
v 6.58610681 -0.42697153 27.85478159
v 6.45926247 -1.52130302 26.93263663
v 8.07907619 -1.69455972 15.83152298
v 6.04623135 -1.68799847 28.02350241
v 1.52822835 -2.33267271 30.96893635
v 6.20862021 0.08674810 29.09491247
v 4.44592034 0.06739716 31.02673343
v 5.26186768 -0.50729417 30.21297010
v 6.82507128 1.01001548 27.30410799
v -6.12775119 -1.92316978 27.63868030
v -5.29604890 0.22922061 30.40016423
v -6.78208959 0.00647317 27.68086467
v -6.44351505 -1.01061777 27.92297157
v -5.73845346 -0.42932629 29.69186945
v -8.59611619 -2.28248440 9.59241878
v -7.36903234 -0.36915080 23.44237791
v -4.69166685 4.85471502 29.73995232
v -0.49883842 5.97275006 31.69880555
v 4.68196952 4.86000425 29.73737192
v 0.74018373 5.81012736 31.67645621
v 0.52192621 5.99830324 31.50029888
v -6.87931758 1.53705801 27.25009133
v 5.44615582 4.39859038 28.90027199
v 6.78903151 2.52331344 26.99780551
v 6.15533834 4.34887138 26.93637872
v 6.27716416 3.58742025 27.88703554
v -6.82518982 2.57165366 27.02645116
v 4.41037392 6.44837237 21.96740075
v 3.52804360 6.99415389 9.47709323
v 4.66762826 6.76715076 9.36663977
v 5.29070889 6.45876578 11.96931029
v -4.38827917 6.43008508 22.42046585
v -5.70371279 6.36935840 8.31797228
v -4.17596116 6.92850644 9.48232493
v 5.69633347 6.35223171 8.31097020
v -2.87095417 7.01767952 9.32711323
v -8.01315056 4.20698520 8.09714313
v 4.77346876 -3.28303417 28.02974491
v 3.91958250 -3.87397177 28.01001462
v 7.56384536 -0.68275920 21.25784550
v 8.46483439 -1.96032068 10.76187261
v 5.41367217 -2.66063529 28.01742650
v 1.95772221 -4.52662516 27.91121369
v 2.94323422 -4.25684764 28.09692675
v 2.72621924 -6.86368587 17.34121691
v 2.89311139 -7.33362243 10.78406603
v -1.98086384 -4.46917992 28.12633028
v 5.85455446 -1.14067122 28.95502263
v 3.23686681 -0.60644860 31.46438611
v 1.92850295 -3.48967565 29.85316040
v 1.50252104 -4.13255799 28.91159823
v 1.91947649 -1.35215161 31.49833292
v 2.38211450 0.18767915 31.89704706
v 4.14880418 -2.72224026 29.60749542
v 4.88691747 -1.89046436 29.65961328
v 3.73586441 -1.57752202 30.81491369
v -2.22529971 -2.30361477 30.92209691
v -1.40620454 -3.61733511 29.72411651
v -2.47323005 -0.36230090 31.78254557
v -1.05494416 -1.08899159 31.64611338
v -1.26980194 -2.28054370 31.00928517
v -5.64268447 -1.72627573 28.89090894
v -4.86093984 -1.70127316 29.90567119
v -4.53677727 -0.48365512 30.82082541
v -3.39428213 -0.74073953 31.37578475
v -4.00838957 -1.72340683 30.57723666
v -4.50504788 -2.65159181 29.38404689
v -3.32002642 -4.19205550 28.02198297
v -3.59879191 -3.45913994 29.16289816
v -5.23154487 -2.67708823 28.41129786
v -4.51511350 -3.52014228 28.03524629
v -8.09534905 -1.54146563 16.41765321
v -7.61249836 1.43264579 21.17074937
v -2.51585994 5.49240401 31.22932939
v -3.50452250 5.36461166 30.66264104
v -1.40770843 5.71790102 31.56690646
v -2.13306358 5.78734467 31.19264764
v 3.59281708 5.31941828 30.61488759
v 1.76068093 5.82773518 31.44860632
v 2.57994563 5.64922957 31.15317984
v 6.51081644 1.78732104 28.42508772
v 7.53082211 1.68207250 21.42685652
v 5.18275912 5.49367731 26.81853346
v -5.40678514 4.56836333 28.77587766
v -5.21075199 5.49993161 26.64949103
v 3.08242095 2.11382176 31.67356970
v 5.78375086 2.44491085 29.55984870
v 4.29004871 2.29559757 31.05025603
v 4.82535501 1.60108259 30.73770721
v 5.11819050 3.13498292 30.10351750
v 5.77123202 1.33525514 29.76322043
v 3.63422154 0.62347421 31.51633508
v -2.56982457 1.64613226 31.89162581
v -5.28354960 3.22607928 29.96689170
v -6.37013459 3.00900243 28.33172009
v -6.32204157 4.14577815 26.84566579
v -3.70278788 1.82723909 31.49030099
v -4.33231508 2.14937837 31.08786382
v -5.63883210 2.10931202 29.91373746
v -6.37082527 1.51004688 28.88114132
v -6.17173585 -0.10254023 29.08664419
v -6.34195392 5.92376715 9.28700541
v 6.32160049 5.92839715 9.42753980
v 7.74011913 -4.65572273 10.08290772
v 4.21650076 -4.83897771 24.87118275
v 5.27517054 -4.30196548 24.30765285
v 6.63929785 -5.98029297 10.18576136
v 3.28278065 -7.22805864 13.29200992
v 2.67177708 -7.08791213 15.27728903
v 3.29552056 -5.28278551 24.57907917
v 2.35038125 -5.90998070 22.84479523
v 7.18133910 -1.02046012 24.01302420
v 8.09581996 -3.77201137 10.95196234
v 7.41307133 -5.16064524 9.76709077
v 4.81520627 -7.02255340 10.41371055
v 3.70428644 -7.30900555 7.51344316
v 4.03741580 -5.86631541 21.37883995
v 2.62819623 -6.51636859 19.71854951
v 5.70337333 -6.63986632 10.17953985
v 5.90507670 -6.19022422 14.05254186
v 6.50527013 -5.23106743 16.70725560
v 5.97978158 -5.00045546 19.97284668
v 7.10440513 -4.11003768 18.11332947
v 6.43853011 -4.10521926 21.24414045
v 6.30695331 -3.26379116 24.03436615
v 7.11300003 -2.57086520 21.95710788
v 4.98828460 -5.23648191 21.95719643
v 4.18240540 -6.53382259 17.76932641
v 7.05791606 -5.17323555 13.63729294
v 5.39589797 -5.91548149 18.01786739
v 4.95098332 -6.60153777 15.13478525
v 4.28915356 -7.01016397 13.48747204
v 7.71470666 -3.77004530 14.91993978
v -3.03749771 -7.30410224 11.94789911
v -2.56085147 -6.88507911 17.20733079
v -2.86627287 -6.64406364 18.85855954
v -2.13102104 -6.15371707 21.68826256
v -2.36597121 -5.76250709 23.47882760
v -2.17777365 -5.16328483 25.81268608
v 2.38177092 -2.80397995 30.42977136
v 1.08458634 -0.04795556 31.95933892
v 3.34205491 -2.68334730 30.18600940
v 3.44112540 -3.59291761 29.01700867
v -2.49515742 0.17155457 31.90687645
v -2.52799822 -3.64803606 29.47563321
v -4.41900699 0.57212043 31.12065255
v -3.36268490 -2.28699855 30.55274251
v -4.18892600 -4.28823717 26.64692433
v -5.51890830 -3.09476374 26.93932543
v -3.98878419 -7.23959868 10.94921975
v -4.82960050 -6.94580462 12.48978240
v -7.63829977 -4.57732350 12.68892243
v -6.20894068 -3.71311161 23.43847308
v -5.22283080 -4.37727940 24.37449701
v -5.01228615 -5.28192386 21.90028477
v -6.10726627 -4.91248851 20.04162750
v -6.96159594 -4.86977406 16.35615357
v -4.40308186 -6.69238637 16.29715965
v -6.49923754 -5.91467559 12.82432961
v -5.82222627 -6.51439785 11.58450821
v -5.45112133 -6.33653977 15.49919255
v -4.23794750 -6.18120196 19.77482037
v -6.77730601 -4.16787072 19.86113177
v -7.63776461 -3.36665413 17.36797205
v -7.04629867 -5.56009527 11.17766053
v -5.88572622 -5.71061821 17.55315872
v -3.77268975 -5.49446068 23.33961256
v -7.57566427 -2.67601576 19.35375658
v -6.91198307 -1.85904796 24.56129435
v -6.89214263 -3.17867602 21.99305039
v -8.59820721 1.12915335 6.82101203
v 8.53992509 0.99147196 6.78859052
v 8.34310872 3.09821471 9.59101746
v 2.11685937 1.50945847 31.95988707
v -8.50733411 2.62871667 9.55886870
v -8.23501081 3.58666511 9.63210762
v 7.04862182 5.33320466 8.91505101
v -7.13740395 5.23876381 8.71416020
v 7.95130856 4.23643322 8.47797336
v 8.47947376 2.65200212 7.76709412
v -8.45279626 2.88365458 7.46318458
v -3.23532694 -7.11560771 14.84893632
v 1.78207804 -5.20107373 25.69468038
v 7.78724873 -2.53505716 17.63115868
v 8.41515323 -2.89266726 10.10325732
v 4.81953061 -7.03693699 7.50069173
v -8.53477305 -2.53420623 7.05543422
v -3.00117288 -7.33891860 7.34433144
v -4.19862959 -7.22680026 7.52475604
v -5.30680718 -6.89236561 9.28215825
v -5.70888327 -6.68002430 7.50267583
v -6.47892612 -6.16674526 9.53448303
v -7.33402395 -5.34706580 7.49693009
v -7.82293928 -4.63899318 9.55378569
v -8.21910442 -3.76592150 10.32924302
v -8.28433961 -3.66357754 7.51462732
v 8.53998091 -1.28764686 7.05349368
v 8.13535167 -3.89807429 7.57434137
v 7.52939160 -5.00247234 7.51587982
v 6.78791094 -5.84910831 7.52854035
v 5.84929061 -6.55274078 7.50197082
v -8.31046285 -2.88042196 12.24198740
v -7.62995003 -2.04191784 20.15951279
v -8.24419626 1.61889587 14.49975507
v 8.20941456 2.19059675 14.14914999
v 8.53442030 2.05521639 9.53064049
v -8.58418792 1.78774586 9.51013354
v -1.23166548 1.36785205 32.01814756
v 5.36828578 5.97594671 20.23808144
v 6.35173127 5.37695708 17.43628695
v 3.57286950 6.81779538 20.38927029
v -3.83397533 6.75868262 20.00208654
v -5.56202632 5.92579713 18.92493723
v -6.42606060 5.36203541 16.78480088
v -8.53288548 1.50476425 6.80528246
v 8.18625454 0.23726442 6.45428907
v -8.21199077 0.31062327 6.44431597
v 8.38878427 -2.96155100 7.06639133
v -2.46280019 6.99744846 19.65152568
v 2.77192469 6.98935260 19.73596362
v -3.34278812 -7.06757258 7.03079499
v -5.73674956 -6.07049187 6.98006389
v -7.44923403 -4.83492246 7.01879001
v 7.59965865 -4.46367857 7.01387077
v 6.26082624 -5.74801963 6.98756627
v 4.42526327 -6.56571469 6.97312504
v 7.47666298 2.50722835 21.28365296
v 7.25062389 3.43608831 21.25421477
v 6.67063031 3.35865336 26.32581376
v 7.56360798 4.19019627 14.56461969
v 7.86612486 3.43380180 14.77986464
v 6.99693772 4.22997722 20.32044887
v -6.83469596 3.36132220 25.43319423
v -6.97766007 4.16031389 21.37025307
v -7.75426499 4.12503274 13.33937266
v -7.52834207 2.49591035 21.30154480
v -8.13881030 2.46111983 14.96463629
v -7.93207164 3.39341249 14.79649848
v -3.25057546 6.89453999 20.15049157
v -5.05701662 6.41788720 15.75671091
v 5.58697150 -0.47935787 6.10831971
v 4.01282117 -0.81680976 5.99718574
v -5.20244598 -0.60866418 6.06420690
v 2.02999398 -7.33893909 7.31021878
v -3.10943748 -1.03411374 6.02743072
v -6.79919959 0.49532123 6.31426447
v -3.11853627 -0.30285292 5.98068156
v 2.55940536 -7.04230494 7.02891208
v 4.10159191 -0.20659158 5.98425214
v 8.30054337 2.18454209 7.11325924
v 7.93454027 0.69867417 6.41705732
v 7.74858532 4.14436539 8.06054013
f 36 35 33
f 249 33 35
f 36 33 34
f 33 249 247
f 243 217 246
f 181 37 33
f 102 33 178
f 251 249 35
f 33 247 246
f 250 251 35
f 246 215 33
f 219 36 34
f 37 178 33
f 249 251 241
f 241 251 216
f 246 247 243
f 244 46 188
f 35 177 179
f 35 252 250
f 250 179 180
f 250 252 179
f 217 215 246
f 29 30 35
f 204 207 15
f 208 141 174
f 13 101 12
f 169 12 203
f 242 245 247
f 221 244 188
f 118 117 111
f 251 250 172
f 31 103 35
f 179 252 35
f 221 191 222
f 215 217 171
f 44 39 143
f 145 47 58
f 219 220 36
f 29 35 36
f 53 86 174
f 88 86 92
f 33 102 240
f 171 15 207
f 202 203 72
f 97 146 93
f 84 96 95
f 169 13 12
f 249 241 242
f 245 243 247
f 247 249 242
f 248 244 221
f 216 251 172
f 25 83 23
f 149 71 70
f 181 33 215
f 93 144 208
f 48 42 4
f 36 220 29
f 30 29 211
f 174 18 208
f 20 18 174
f 8 91 89
f 7 49 56
f 85 75 77
f 213 240 102
f 96 233 27
f 144 93 146
f 101 100 12
f 77 74 76
f 62 67 63
f 62 13 10
f 149 70 10
f 46 244 116
f 116 108 46
f 109 108 45
f 216 172 197
f 216 197 218
f 30 31 35
f 179 173 180
f 189 191 221
f 157 165 159
f 181 215 171
f 146 64 65
f 48 55 42
f 56 55 8
f 142 54 56
f 55 56 54
f 143 142 50
f 54 143 39
f 110 117 105
f 21 219 18
f 18 20 21
f 86 53 92
f 174 86 79
f 6 91 8
f 48 6 8
f 87 89 91
f 88 92 7
f 40 205 82
f 40 82 9
f 6 1 9
f 9 81 6
f 126 123 184
f 104 133 129
f 124 122 121
f 19 78 90
f 26 23 87
f 84 85 96
f 212 34 33
f 77 18 239
f 239 212 32
f 204 72 73
f 204 73 236
f 146 98 11
f 75 84 17
f 11 98 99
f 71 148 68
f 200 225 224
f 198 199 218
f 241 225 242
f 116 244 248
f 245 248 221
f 134 188 46
f 121 130 120
f 128 45 108
f 209 103 31
f 28 83 209
f 232 230 210
f 83 19 23
f 173 206 180
f 185 184 113
f 167 148 155
f 182 136 158
f 223 222 191
f 243 222 223
f 217 223 187
f 166 157 159
f 243 221 222
f 181 171 207
f 59 141 144
f 52 53 141
f 65 66 147
f 57 65 147
f 66 65 64
f 48 8 55
f 128 118 45
f 145 58 57
f 43 44 51
f 18 219 239
f 49 7 92
f 52 142 56
f 140 142 52
f 49 53 52
f 90 89 87
f 88 7 89
f 8 7 56
f 87 91 81
f 91 6 81
f 48 4 1
f 237 207 204
f 34 239 219
f 239 32 77
f 203 12 16
f 22 16 12
f 202 164 203
f 73 16 22
f 208 18 93
f 146 65 144
f 14 101 13
f 99 100 11
f 14 11 101
f 95 27 22
f 85 84 75
f 169 203 168
f 62 63 14
f 70 62 10
f 62 14 13
f 71 68 69
f 145 57 147
f 10 13 169
f 200 224 199
f 218 199 224
f 186 116 226
f 116 248 226
f 248 245 242
f 242 226 248
f 226 242 225
f 115 132 108
f 218 185 198
f 173 231 205
f 173 230 231
f 177 103 210
f 35 103 177
f 206 173 205
f 158 136 162
f 152 157 164
f 163 157 156
f 153 163 156
f 161 160 151
f 151 182 158
f 161 158 162
f 223 193 196
f 187 223 196
f 217 187 171
f 175 181 207
f 61 60 57
f 64 14 63
f 11 14 64
f 2 1 4
f 5 50 140
f 50 142 140
f 60 59 57
f 58 50 61
f 58 61 57
f 51 50 58
f 128 117 118
f 130 117 128
f 42 54 38
f 111 138 137
f 87 23 90
f 23 19 90
f 78 19 83
f 49 52 56
f 174 141 53
f 79 21 20
f 89 7 8
f 9 24 81
f 25 23 26
f 184 40 112
f 112 2 126
f 6 48 1
f 129 133 123
f 78 80 88
f 96 85 234
f 235 234 214
f 32 212 240
f 73 72 16
f 202 15 195
f 95 96 27
f 27 233 236
f 146 97 98
f 101 11 100
f 18 77 76
f 95 99 94
f 94 98 75
f 94 99 98
f 203 164 168
f 68 148 167
f 67 62 70
f 218 224 216
f 116 186 115
f 120 131 119
f 123 124 121
f 197 41 185
f 197 172 206
f 206 41 197
f 185 41 3
f 209 83 210
f 232 25 228
f 230 177 210
f 82 24 9
f 205 228 227
f 173 179 230
f 3 184 185
f 133 113 184
f 180 172 250
f 155 166 162
f 156 154 153
f 152 164 195
f 153 170 163
f 157 163 164
f 148 154 155
f 157 166 156
f 149 154 71
f 150 189 188
f 150 190 189
f 171 187 15
f 60 141 59
f 64 63 66
f 64 146 11
f 57 59 65
f 143 54 142
f 4 125 2
f 45 118 135
f 143 50 44
f 117 130 127
f 54 39 38
f 105 44 110
f 139 167 138
f 110 44 43
f 80 78 83
f 28 80 83
f 21 79 220
f 92 53 49
f 140 52 5
f 79 80 28
f 90 88 89
f 26 81 24
f 125 123 126
f 32 240 213
f 37 181 176
f 207 237 175
f 214 213 102
f 96 234 233
f 240 212 33
f 72 204 15
f 204 236 237
f 238 237 236
f 233 238 236
f 203 16 72
f 77 32 85
f 95 100 99
f 170 10 169
f 149 10 153
f 69 70 71
f 147 69 145
f 70 69 67
f 66 63 67
f 67 69 147
f 225 200 201
f 201 200 107
f 243 245 221
f 188 134 150
f 108 134 46
f 132 115 131
f 131 115 119
f 201 226 225
f 186 201 119
f 226 201 186
f 186 119 115
f 132 131 128
f 130 121 122
f 121 129 123
f 211 220 79
f 87 81 26
f 82 227 24
f 231 228 205
f 210 103 209
f 184 123 133
f 162 138 167
f 155 154 156
f 195 164 202
f 161 162 166
f 148 71 154
f 192 191 190
f 159 165 192
f 160 161 159
f 151 150 182
f 189 221 188
f 191 192 193
f 193 223 191
f 152 194 165
f 134 108 109
f 137 136 118
f 182 135 136
f 44 50 51
f 50 5 61
f 43 51 47
f 111 110 183
f 111 117 110
f 122 127 130
f 105 127 106
f 122 124 125
f 125 42 106
f 39 44 105
f 105 117 127
f 138 111 183
f 47 68 139
f 183 110 43
f 79 20 174
f 184 112 126
f 9 112 40
f 125 124 123
f 90 78 88
f 80 79 86
f 234 85 214
f 181 175 176
f 175 237 238
f 178 37 235
f 234 238 233
f 34 212 239
f 15 202 72
f 17 84 94
f 236 73 22
f 76 93 18
f 22 100 95
f 98 74 75
f 77 75 74
f 94 84 95
f 94 75 17
f 10 170 153
f 168 164 170
f 168 170 169
f 147 66 67
f 224 225 241
f 104 198 113
f 199 198 104
f 130 131 120
f 128 108 132
f 113 133 104
f 230 179 177
f 230 228 231
f 25 26 229
f 180 206 172
f 41 206 205
f 155 162 167
f 163 170 164
f 166 155 156
f 161 166 159
f 190 160 192
f 158 161 151
f 15 187 196
f 195 15 196
f 192 160 159
f 152 165 157
f 165 194 193
f 208 144 141
f 141 60 52
f 54 42 55
f 125 126 2
f 109 135 182
f 137 118 111
f 105 38 39
f 122 125 106
f 138 183 139
f 47 139 183
f 68 167 139
f 40 184 3
f 235 37 176
f 214 102 178
f 195 194 152
f 65 59 144
f 12 100 22
f 97 93 74
f 47 145 68
f 68 145 69
f 114 199 104
f 201 107 119
f 116 115 108
f 128 131 130
f 113 198 185
f 28 31 30
f 28 209 31
f 228 230 232
f 26 24 229
f 205 3 41
f 154 149 153
f 165 193 192
f 151 190 150
f 182 150 134
f 61 52 60
f 134 109 182
f 135 118 136
f 127 122 106
f 38 105 106
f 80 86 88
f 3 205 40
f 112 1 2
f 112 9 1
f 178 235 214
f 213 214 85
f 74 93 76
f 228 25 229
f 138 162 136
f 189 190 191
f 109 45 135
f 58 47 51
f 106 42 38
f 47 183 43
f 220 211 29
f 176 238 235
f 27 236 22
f 121 120 129
f 197 185 218
f 129 114 104
f 210 83 25
f 210 25 232
f 211 28 30
f 194 196 193
f 61 5 52
f 4 42 125
f 235 238 234
f 98 97 74
f 200 199 114
f 114 129 107
f 107 120 119
f 229 227 228
f 137 138 136
f 195 196 194
f 175 238 176
f 120 107 129
f 114 107 200
f 82 205 227
f 24 227 229
f 160 190 151
f 220 219 21
f 32 213 85
f 211 79 28
f 223 217 243
f 241 216 224
