# https://github.com/mikedh/trimesh
v -7.18651361 -7.22555905 9.65575224
v -7.63091375 -7.35597050 10.41066123
v 7.06244771 -6.96634972 9.53143885
v -9.02343431 1.29221731 29.09193150
v -9.41930739 1.50134259 27.23999795
v -8.43250166 2.36418386 30.28225716
v -7.95499309 1.34494363 31.00342517
v -2.64127273 -8.75291326 11.28708624
v -4.71170991 -8.47991326 10.90334918
v -4.53131608 -8.70548078 11.53215773
v -6.60206612 -7.95705158 10.54245963
v -6.17225277 -8.20254817 11.64370808
v 7.67993293 1.87451447 31.34766679
v -6.31523254 -3.91388115 29.06894315
v -7.39117943 -2.70306516 29.33895250
v -8.17523760 -2.78232572 26.98947137
v -3.11420643 -5.16964396 29.43415242
v -6.61840948 -1.82398708 31.24086143
v -4.74163690 -4.67236666 29.44561647
v -8.52584422 -1.55491863 28.23290099
v -7.12769392 -0.72320401 31.38041422
v -5.17384174 -3.75205442 30.58762498
v 6.94734437 -7.40070275 9.81828000
v 4.95354000 -8.49953732 10.98350442
v 7.66336648 -7.21576960 10.08363236
v 8.56962803 2.18916835 30.05070400
v 7.07379656 -1.03625659 31.26263281
v 5.65469304 -3.65621560 30.30896464
v 3.90753650 -4.62919868 30.11200144
v 6.67214649 -7.97220981 10.81369764
v 3.77157554 -8.81919447 11.73421379
v 7.22075121 -3.03627891 29.06600183
v 6.72772459 -2.14474678 30.87424841
v 8.13881085 -2.10503434 28.49402539
v 6.29600222 -3.97469602 28.90200138
v 9.98752231 4.96633493 10.31894391
v -8.48293838 4.98207576 28.77606258
v -10.20247109 4.43195586 10.51661895
v -9.66144468 5.66141085 10.30999836
v 9.53157765 3.63686464 9.48267475
v -9.63315568 3.54225629 9.48041674
v 2.35826226 7.31565423 34.81475202
v -2.84769290 7.27206271 34.53332636
v 7.50902953 6.48436395 27.31074817
v 6.04244151 8.39918065 10.64050983
v 6.95058093 7.92268413 10.62475803
v 7.96295306 7.24507949 9.67513668
v -7.51194632 6.51047400 27.18766179
v -8.10701801 7.07612357 10.35386015
v -6.95815099 7.92080193 10.56959150
v 6.81601147 6.11176384 31.96057533
v 5.56097264 6.59666005 33.46126977
v 5.88556944 6.13126076 33.24750364
v 4.99130616 6.42783057 33.95182608
v 3.63075861 6.94316874 34.55619727
v -3.68744001 6.93572921 34.52916206
v -4.92373653 6.63071249 33.99619692
v -6.29012565 6.32157651 32.77435826
v -9.42937130 4.10702443 9.51686518
v 8.69071120 6.50188014 10.26881782
v -5.92767455 8.43609924 10.69619389
v 9.57091908 5.36499778 9.94649132
v 3.57923945 8.99125783 10.83857095
v -2.88883227 8.99804091 19.87151486
v 2.85966723 8.99798224 19.86635574
v -6.78029042 -6.65071701 9.48399207
v -10.57725364 -1.90728119 10.47718921
v -10.58269200 2.12509737 10.31785788
v -10.30316299 1.94050824 9.80718255
v -10.24311600 -1.51787109 9.70277913
v -9.34190004 -3.42550860 9.48218857
v -9.11861325 -4.62589127 9.55598077
v -9.09615740 -5.24387246 9.82696136
v -10.21454276 -3.27819436 10.10140249
v -9.84249707 -4.51142527 10.28329866
v -8.89901031 -6.00940914 10.27535236
v -2.85086347 -8.83660426 11.73472446
v 0.15647081 1.73348054 34.91719052
v 6.58131213 0.90917110 32.38793428
v -2.89854790 1.63279560 34.47640648
v -6.84363150 1.77120528 32.22143745
v -6.56069349 -2.91779149 30.21948257
v -5.28560556 -2.85969661 31.49035191
v -2.04539020 -5.38064496 29.07715100
v -9.15202287 -0.06430027 27.76006764
v -8.03647141 -0.84890953 30.06361077
v -8.58316428 -0.20224043 29.39642106
v 10.38771375 -1.21758647 9.85367245
v 10.20930355 1.41235943 9.69547632
v 9.93226746 -1.63745222 9.54816076
v 10.58355195 -1.63638862 10.50567190
v 10.52016232 2.27956227 10.21424181
v 9.27386167 0.86511239 28.00193468
v 9.39218921 2.30130933 27.41018762
v -3.16014089 -8.59444981 14.81552988
v -2.86424257 -7.92296808 19.61091450
v 2.14024179 -3.35763551 32.41930197
v 2.36910837 -2.23218611 33.33579758
v 1.46173540 -0.57021756 34.37244508
v 7.41882930 0.10683351 31.38999338
v 1.81502121 -4.12183834 31.61614662
v -0.03208587 -4.78013703 30.64705471
v 0.63485739 -2.41263568 33.49158715
v -0.25720911 -3.22135722 32.82602648
v -0.10216631 0.35387942 34.73896377
v 5.55656931 -2.56617337 31.53177940
v 4.33956099 -2.49552898 32.39089581
v 2.31601836 -5.24140233 29.47291866
v 3.97852942 -1.35308126 33.27560424
v 5.71341724 -1.11188883 32.39922060
v -0.72379167 -0.82232087 34.33538557
v -1.32731568 -2.20037259 33.55653818
v -1.45521946 -4.31787087 31.37945997
v -3.94996035 1.16641832 34.05796444
v -4.91231659 -1.47923237 32.72634056
v -3.33437851 -2.36046787 32.94629164
v -3.44070269 -1.23653561 33.54190455
v -2.72901741 -0.52489639 34.09924311
v 10.20703867 -3.26647783 10.10218072
v 9.24599155 -3.86559834 9.48256722
v 9.13473781 -5.54834132 10.05439940
v 8.70741775 -5.22703158 9.57259462
v 9.71240232 -4.69632318 10.23941488
v 8.75530140 -0.64158913 28.59596868
v 8.47261345 0.68623833 30.05814932
v 5.09927193 -4.55986198 29.27700898
v 2.80446353 -8.11935840 18.54985774
v 8.45038800 5.05287393 28.64791775
v 9.19095876 3.82785563 27.29447180
v -9.03679545 4.30027283 27.34313747
v 9.91799643 4.41437028 9.77724471
v 1.30382651 7.44328411 34.76519030
v 3.93842220 7.06083535 34.19994812
v -1.45074721 7.43095556 34.74760122
v -4.23403594 6.99799526 34.06886907
v -5.59562257 6.60426072 33.28422286
v -2.22627860 7.17381300 34.83036271
v -6.96026385 6.06430152 31.64580986
v -0.16629574 7.28127517 34.99791479
v -9.85394981 4.68387304 9.78885971
v -6.99189323 0.65841542 31.97116149
v -9.14332732 2.84210237 28.36516610
v 1.32630079 1.84553605 34.82995285
v 2.55557146 1.38234736 34.55554166
v 3.99818598 1.45611125 34.05865576
v 5.27797236 1.40615933 33.40572002
v -1.28724376 1.76642502 34.83641625
v 2.07826607 -8.70807532 11.13472693
v -3.13506476 -8.26717407 17.47468695
v -2.96612621 -6.84624777 24.34949354
v -2.63975785 -7.31409641 22.53769962
v 3.83517717 -3.70720325 31.43500974
v 2.98962046 -0.57112580 33.99924560
v 4.58784658 -0.24448327 33.44227097
v -3.70019357 -3.92596306 31.23529580
v -4.21469422 0.20810003 33.77680231
v -5.53020757 -0.57224155 32.76819047
v -5.54954171 1.59495698 33.24173542
v -2.33542633 -3.61985021 32.10172185
v -1.70721222 0.22106285 34.54105151
v 5.38561345 -8.41906757 12.21429586
v 7.95203701 -1.22157992 29.93520769
v 6.11938655 -7.91135229 14.46391285
v 8.80053943 5.01109621 26.93538772
v -9.37024988 3.03939947 27.03072941
v -8.58626034 3.31284014 29.71872976
v 8.76830300 4.06316736 28.81369704
v 8.81152934 3.00013870 29.33751722
v 5.41280461 8.39307716 21.00985585
v 7.13519313 7.26366255 22.71096988
v 4.20024047 8.81662241 20.23706991
v -4.17433026 8.82081920 20.22753713
v -5.12285879 8.49718464 20.93673891
v -3.52368257 8.99681209 10.84507885
v -4.40683381 -8.45442156 14.83159055
v 3.35221641 -8.58769648 14.84851732
v -10.20835114 -1.01821881 17.30599443
v -10.29681688 2.00278596 15.75035994
v -9.72944842 0.12596788 23.59780377
v -10.03683550 -4.19948056 10.89349663
v -9.05214164 -5.91883487 10.95933748
v -6.49582874 -7.79443855 13.96332235
v -7.79540561 -6.78821589 14.63998274
v -8.98544102 -5.44549243 14.85759802
v -10.13681375 -2.72816382 15.48494720
v -6.36246562 -5.30716370 25.28855950
v -7.31626270 -4.42015704 25.51394821
v -4.42279211 -6.12369051 25.75572378
v -2.49947439 -6.14558002 26.78326260
v -9.81237667 -1.61863270 20.88875370
v -9.45040028 -2.55251313 21.69772491
v -9.63548857 -4.02917758 16.04764935
v -9.01340743 -4.39236728 19.07368783
v -8.15248298 -5.86939605 17.80247940
v -7.41254764 -5.47013328 22.14112408
v -6.59685800 -6.65303590 20.13006527
v -7.12955457 -6.79119469 17.67382108
v -5.58253965 -7.68766318 17.58712127
v -4.12508325 -7.29697254 21.78987345
v -4.33653216 -7.89533441 18.70207129
v -8.98531854 -3.26888828 22.49952712
v -8.25634993 -4.48516326 22.33385381
v -5.49310459 -5.96756977 24.82245461
v -5.50727545 -6.83614906 21.77105773
v 8.32809581 -6.73060875 10.99607336
v 9.55602136 -5.13657725 10.96294493
v 10.27705057 -3.48041220 10.91953344
v 10.35938927 2.00492707 14.71110994
v 10.30151905 -1.69979174 15.52500446
v 10.08844759 2.47443143 18.80006776
v 9.84058290 -0.08406323 22.28412267
v 9.11969658 -1.40517849 25.87094972
v 3.80086785 -5.53372285 28.00467946
v 2.93939475 -6.83325649 24.39286862
v 2.77929328 -7.41745728 22.05525282
v 7.48041439 -4.39272032 25.17087432
v 8.61035469 -3.42131395 23.84727351
v 9.63943084 -1.31931037 22.81144812
v 9.68104997 -4.00337128 15.83979244
v 9.25489810 -5.04674526 14.69314822
v 8.45083383 -6.21369233 14.21634221
v 2.68672156 -6.23347634 26.48149007
v 5.77015450 -5.14951308 26.78262383
v 4.60313985 -6.20250274 25.32686714
v 9.93700722 -2.90787504 16.96688627
v 9.37738605 -2.99408802 21.09342967
v 8.76278242 -4.95344784 18.54907175
v 7.76508658 -5.49516373 20.94862668
v 6.40409462 -6.97983906 19.20341907
v 6.46135263 -5.84720506 23.42287364
v 5.59157108 -6.52853470 22.76726471
v 4.41448228 -7.56564726 20.33155588
v 7.42749975 -6.94596135 15.67073481
v 5.89209796 -7.61668153 17.20295468
v 4.35574578 -8.26121165 16.46224616
v -8.81122367 4.99850774 26.92691655
v 6.27329609 7.91999689 21.84042262
v -7.30076378 7.27930231 19.88133726
v -6.22404209 7.95607248 21.77947294
v 10.55305150 2.51065333 10.91080917
v -9.79845472 2.91320520 22.06972849
v -10.26979707 3.24832933 14.52684767
v -10.48393056 3.04023238 11.03512972
v -9.55914680 4.09679379 21.99825821
v -9.66828036 4.85919472 16.57432296
v 8.11043459 6.50882306 19.75896853
v 9.48156088 4.99809871 18.61446367
v 10.33800251 3.82609008 10.87038479
v 9.88725464 3.90380390 18.47563804
v 0.00324358 7.55465494 34.21228831
v -4.85847964 8.77812684 11.10673971
v 4.85843602 8.77780936 11.13149864
f 59 47 41
f 63 47 174
f 41 47 40
f 47 59 49
f 41 40 71
f 47 45 46
f 182 2 12
f 49 140 39
f 59 140 49
f 61 50 239
f 47 131 40
f 89 131 92
f 10 175 12
f 9 8 10
f 47 49 50
f 140 41 69
f 174 65 63
f 174 64 65
f 65 64 250
f 47 50 61
f 237 47 46
f 47 63 45
f 148 1 23
f 119 207 123
f 77 10 8
f 48 39 236
f 57 136 58
f 39 140 38
f 252 171 45
f 45 63 252
f 45 171 169
f 189 150 222
f 150 151 214
f 75 180 74
f 67 74 180
f 103 99 111
f 120 90 119
f 40 89 90
f 76 181 75
f 75 181 180
f 59 41 140
f 55 133 42
f 170 47 237
f 62 60 36
f 164 247 246
f 45 169 237
f 237 46 45
f 210 94 211
f 119 90 88
f 167 168 129
f 21 86 18
f 222 150 214
f 20 86 87
f 111 105 160
f 160 105 147
f 111 118 112
f 108 101 102
f 104 113 101
f 121 122 120
f 123 121 119
f 72 71 66
f 40 131 89
f 47 62 131
f 92 131 36
f 10 77 95
f 148 24 31
f 12 11 10
f 12 2 11
f 138 58 48
f 238 49 39
f 50 238 239
f 67 177 68
f 68 140 69
f 38 140 68
f 70 41 71
f 174 61 251
f 47 61 174
f 237 52 44
f 240 91 92
f 91 207 119
f 91 119 88
f 168 93 94
f 105 78 147
f 27 100 110
f 230 223 231
f 76 75 73
f 74 67 70
f 103 112 104
f 117 116 118
f 116 112 118
f 111 112 103
f 102 113 17
f 120 40 90
f 200 175 149
f 175 182 12
f 82 15 14
f 181 76 2
f 2 182 183
f 1 11 2
f 9 1 148
f 9 148 8
f 136 173 239
f 173 61 239
f 138 48 37
f 37 48 236
f 39 48 238
f 171 42 133
f 246 247 60
f 68 243 38
f 63 65 171
f 250 134 132
f 251 61 172
f 47 170 60
f 36 131 62
f 47 60 62
f 55 54 52
f 52 133 55
f 26 93 168
f 26 13 125
f 51 52 53
f 88 92 91
f 208 91 240
f 34 212 124
f 162 34 124
f 26 125 93
f 216 34 32
f 148 23 24
f 79 13 53
f 79 100 13
f 21 141 7
f 7 4 87
f 222 214 213
f 126 28 29
f 101 29 152
f 127 235 232
f 74 70 72
f 72 70 71
f 204 198 200
f 86 20 15
f 189 17 188
f 84 189 108
f 188 203 204
f 188 199 150
f 200 96 199
f 150 199 151
f 118 111 160
f 115 116 117
f 158 114 57
f 115 157 18
f 18 83 115
f 114 158 156
f 160 80 114
f 104 159 113
f 188 19 203
f 113 102 101
f 19 17 155
f 83 155 116
f 24 23 30
f 120 71 40
f 25 23 3
f 163 30 233
f 218 225 209
f 88 90 89
f 31 77 148
f 8 148 77
f 9 10 11
f 82 22 83
f 11 1 9
f 39 245 236
f 238 48 239
f 171 252 63
f 128 129 164
f 51 128 44
f 39 38 245
f 38 242 245
f 171 65 132
f 250 132 65
f 57 56 135
f 136 57 135
f 61 173 172
f 246 60 170
f 53 54 146
f 53 52 54
f 146 79 53
f 94 129 168
f 44 128 164
f 92 248 240
f 119 121 120
f 211 94 93
f 167 129 128
f 94 210 129
f 7 86 21
f 86 7 87
f 86 15 18
f 152 29 28
f 106 107 28
f 101 97 104
f 97 98 103
f 30 163 161
f 235 161 163
f 73 72 1
f 2 76 1
f 192 185 180
f 193 191 192
f 20 16 15
f 5 179 85
f 85 4 5
f 188 204 199
f 189 188 150
f 157 156 158
f 118 160 114
f 80 160 147
f 186 203 19
f 159 155 113
f 113 155 17
f 18 82 83
f 25 3 122
f 122 121 25
f 229 232 234
f 228 233 227
f 233 229 234
f 30 205 233
f 212 226 218
f 226 217 227
f 72 66 1
f 77 31 176
f 96 200 149
f 127 232 215
f 127 176 235
f 95 175 10
f 14 22 82
f 85 87 4
f 58 6 7
f 137 43 56
f 136 135 173
f 37 236 130
f 6 58 166
f 238 50 49
f 248 36 247
f 70 67 68
f 70 68 69
f 43 172 173
f 43 173 135
f 139 42 132
f 43 135 56
f 139 134 137
f 170 237 44
f 100 125 13
f 168 51 26
f 208 240 210
f 211 93 218
f 212 34 217
f 33 28 32
f 34 216 217
f 99 105 111
f 154 109 110
f 125 100 162
f 110 109 107
f 98 107 109
f 18 15 82
f 222 213 108
f 213 29 108
f 229 231 232
f 232 231 224
f 230 231 229
f 126 29 213
f 152 97 101
f 107 98 97
f 97 152 107
f 107 152 28
f 103 104 97
f 234 232 235
f 230 229 228
f 76 73 1
f 74 72 73
f 73 75 74
f 193 201 191
f 204 200 199
f 183 184 181
f 5 4 142
f 177 179 241
f 87 85 20
f 222 108 189
f 151 199 96
f 159 104 112
f 115 117 156
f 7 141 81
f 137 134 43
f 17 189 84
f 186 19 14
f 116 155 159
f 155 83 22
f 19 155 22
f 3 120 122
f 163 233 234
f 25 30 23
f 120 3 66
f 211 218 209
f 226 212 217
f 225 219 207
f 217 228 227
f 91 209 207
f 198 204 196
f 37 166 138
f 236 245 244
f 236 244 130
f 248 247 249
f 129 249 164
f 240 248 249
f 249 210 240
f 172 43 134
f 64 134 250
f 171 132 42
f 172 134 64
f 167 128 51
f 92 88 89
f 124 93 125
f 129 210 249
f 125 162 124
f 98 99 103
f 98 153 99
f 79 146 154
f 110 100 79
f 110 106 33
f 27 110 33
f 153 98 109
f 224 213 214
f 214 215 232
f 216 32 35
f 35 32 28
f 161 235 31
f 191 185 192
f 184 193 192
f 202 187 16
f 193 194 202
f 183 194 184
f 184 192 180
f 67 185 177
f 190 179 177
f 178 68 177
f 5 142 165
f 37 130 142
f 179 5 241
f 191 201 20
f 16 20 201
f 85 191 20
f 108 102 84
f 156 157 115
f 83 116 115
f 141 158 81
f 56 147 137
f 3 1 66
f 206 221 205
f 71 120 66
f 221 227 233
f 205 30 25
f 121 205 25
f 123 206 121
f 219 225 226
f 206 207 219
f 206 123 207
f 127 149 176
f 149 175 95
f 175 198 182
f 204 203 186
f 4 7 6
f 58 81 57
f 56 114 80
f 114 56 57
f 92 36 248
f 69 41 70
f 38 243 242
f 241 244 242
f 134 139 132
f 169 171 133
f 164 246 44
f 51 53 26
f 51 44 52
f 168 167 51
f 162 100 27
f 162 27 33
f 106 28 33
f 217 216 228
f 145 54 55
f 139 78 42
f 139 147 78
f 110 79 154
f 154 146 145
f 106 110 107
f 224 223 126
f 96 215 151
f 215 96 127
f 215 214 151
f 31 24 161
f 24 30 161
f 234 235 163
f 176 31 235
f 190 191 85
f 16 201 202
f 194 193 184
f 196 195 194
f 130 165 142
f 190 185 191
f 116 159 112
f 158 141 157
f 18 157 21
f 141 21 157
f 118 156 117
f 114 156 118
f 102 17 84
f 14 19 22
f 3 23 1
f 206 220 221
f 228 229 233
f 233 205 221
f 225 218 226
f 209 225 207
f 149 95 176
f 200 198 175
f 186 187 195
f 187 186 14
f 195 196 186
f 186 196 204
f 142 4 166
f 166 4 6
f 166 37 142
f 36 60 247
f 26 53 13
f 52 169 133
f 208 210 209
f 93 124 212
f 32 162 33
f 78 143 42
f 145 146 54
f 214 232 224
f 224 126 213
f 223 35 126
f 35 230 216
f 223 230 35
f 28 126 35
f 108 29 101
f 195 202 194
f 194 197 196
f 181 184 180
f 185 67 180
f 185 190 177
f 5 165 241
f 57 81 158
f 188 17 19
f 219 220 206
f 219 227 220
f 182 196 197
f 187 202 195
f 183 182 197
f 58 7 81
f 249 247 164
f 244 245 242
f 243 68 178
f 242 243 178
f 52 237 169
f 209 91 208
f 209 210 211
f 218 93 212
f 162 32 34
f 228 216 230
f 154 153 109
f 181 2 183
f 202 201 193
f 194 183 197
f 85 179 190
f 227 219 226
f 149 127 96
f 56 80 147
f 241 165 244
f 166 58 138
f 241 242 178
f 144 143 99
f 55 42 143
f 139 137 147
f 224 231 223
f 177 241 178
f 205 121 206
f 220 227 221
f 95 77 176
f 130 244 165
f 170 44 246
f 153 154 145
f 78 105 143
f 99 153 144
f 15 187 14
f 196 182 198
f 144 153 145
f 99 143 105
f 15 16 187
f 145 55 144
f 55 143 144
f 251 172 174
f 172 64 174
f 48 136 239
f 48 58 136
